<svg width="20" height="20" viewBox="0 0 20 20" fill="none" xmlns="http://www.w3.org/2000/svg">
<path d="M1.2 3.2C1.094 3.1985 0.988745 3.21809 0.89037 3.25762C0.791996 3.29715 0.702459 3.35584 0.626963 3.43027C0.551467 3.50471 0.491519 3.59341 0.4506 3.69121C0.409682 3.78902 0.388611 3.89398 0.388611 4C0.388611 4.10602 0.409682 4.21098 0.4506 4.30879C0.491519 4.4066 0.551467 4.49529 0.626963 4.56973C0.702459 4.64416 0.791996 4.70285 0.89037 4.74238C0.988745 4.78191 1.094 4.8015 1.2 4.8H18.8C18.906 4.8015 19.0113 4.78191 19.1096 4.74238C19.208 4.70285 19.2976 4.64416 19.373 4.56973C19.4485 4.49529 19.5085 4.4066 19.5494 4.30879C19.5903 4.21098 19.6114 4.10602 19.6114 4C19.6114 3.89398 19.5903 3.78902 19.5494 3.69121C19.5085 3.59341 19.4485 3.50471 19.373 3.43027C19.2976 3.35584 19.208 3.29715 19.1096 3.25762C19.0113 3.21809 18.906 3.1985 18.8 3.2H1.2ZM1.2 9.2C1.094 9.1985 0.988745 9.21809 0.89037 9.25762C0.791996 9.29715 0.702459 9.35584 0.626963 9.43027C0.551467 9.50471 0.491519 9.59341 0.4506 9.69121C0.409682 9.78902 0.388611 9.89398 0.388611 10C0.388611 10.106 0.409682 10.211 0.4506 10.3088C0.491519 10.4066 0.551467 10.4953 0.626963 10.5697C0.702459 10.6442 0.791996 10.7029 0.89037 10.7424C0.988745 10.7819 1.094 10.8015 1.2 10.8H18.8C18.906 10.8015 19.0113 10.7819 19.1096 10.7424C19.208 10.7029 19.2976 10.6442 19.373 10.5697C19.4485 10.4953 19.5085 10.4066 19.5494 10.3088C19.5903 10.211 19.6114 10.106 19.6114 10C19.6114 9.89398 19.5903 9.78902 19.5494 9.69121C19.5085 9.59341 19.4485 9.50471 19.373 9.43027C19.2976 9.35584 19.208 9.29715 19.1096 9.25762C19.0113 9.21809 18.906 9.1985 18.8 9.2H1.2ZM1.2 15.2C1.094 15.1985 0.988745 15.2181 0.89037 15.2576C0.791996 15.2971 0.702459 15.3558 0.626963 15.4303C0.551467 15.5047 0.491519 15.5934 0.4506 15.6912C0.409682 15.789 0.388611 15.894 0.388611 16C0.388611 16.106 0.409682 16.211 0.4506 16.3088C0.491519 16.4066 0.551467 16.4953 0.626963 16.5697C0.702459 16.6442 0.791996 16.7029 0.89037 16.7424C0.988745 16.7819 1.094 16.8015 1.2 16.8H18.8C18.906 16.8015 19.0113 16.7819 19.1096 16.7424C19.208 16.7029 19.2976 16.6442 19.373 16.5697C19.4485 16.4953 19.5085 16.4066 19.5494 16.3088C19.5903 16.211 19.6114 16.106 19.6114 16C19.6114 15.894 19.5903 15.789 19.5494 15.6912C19.5085 15.5934 19.4485 15.5047 19.373 15.4303C19.2976 15.3558 19.208 15.2971 19.1096 15.2576C19.0113 15.2181 18.906 15.1985 18.8 15.2H1.2Z" fill="white"/>
</svg>
