<svg width="136" height="135" viewBox="0 0 136 135" fill="none" xmlns="http://www.w3.org/2000/svg">
<path d="M28.625 118.125C23.9375 118.125 19.9531 116.484 16.6719 113.203C13.3906 109.922 11.75 105.938 11.75 101.25C11.75 96.5625 13.3906 92.5781 16.6719 89.2969C19.9531 86.0156 23.9375 84.375 28.625 84.375H107.375C112.062 84.375 116.047 86.0156 119.328 89.2969C122.609 92.5781 124.25 96.5625 124.25 101.25C124.25 105.938 122.609 109.922 119.328 113.203C116.047 116.484 112.062 118.125 107.375 118.125H28.625ZM28.625 106.875H107.375C108.969 106.875 110.306 106.335 111.386 105.255C112.466 104.175 113.004 102.84 113 101.25C112.996 99.66 112.456 98.325 111.38 97.245C110.304 96.165 108.969 95.625 107.375 95.625H28.625C27.0312 95.625 25.6963 96.165 24.62 97.245C23.5438 98.325 23.0037 99.66 23 101.25C22.9963 102.84 23.5363 104.177 24.62 105.261C25.7038 106.344 27.0387 106.882 28.625 106.875ZM56.75 73.125C55.1562 73.125 53.8213 72.585 52.745 71.505C51.6688 70.425 51.1287 69.09 51.125 67.5V22.5C51.125 20.9062 51.665 19.5713 52.745 18.495C53.825 17.4188 55.16 16.8787 56.75 16.875H101.75C103.344 16.875 104.681 17.415 105.761 18.495C106.841 19.575 107.379 20.91 107.375 22.5V67.5C107.375 69.0938 106.835 70.4306 105.755 71.5106C104.675 72.5906 103.34 73.1287 101.75 73.125H56.75ZM17.0938 61.5938C15.5938 61.5938 14.3281 61.0537 13.2969 59.9737C12.2656 58.8937 11.75 57.6075 11.75 56.115C11.75 54.6225 12.29 53.3569 13.37 52.3181C14.45 51.2794 15.7381 50.7638 17.2344 50.7713H34.1094C35.6094 50.7713 36.875 51.2869 37.9062 52.3181C38.9375 53.3494 39.4531 54.615 39.4531 56.115C39.4531 57.615 38.9375 58.905 37.9062 59.985C36.875 61.065 35.6094 61.6031 34.1094 61.5994L17.0938 61.5938ZM73.625 45H85.0156C86.6094 45 87.9219 44.46 88.9531 43.38C89.9844 42.3 90.5 40.965 90.5 39.375C90.5 37.785 89.9844 36.4725 88.9531 35.4375C87.9219 34.4025 86.6094 33.8869 85.0156 33.8906H73.4844C71.8906 33.8906 70.5781 34.4063 69.5469 35.4375C68.5156 36.4688 68 37.7812 68 39.375C68 40.9688 68.54 42.3037 69.62 43.38C70.7 44.4562 72.035 44.9963 73.625 45ZM28.4844 45C26.8906 45 25.5781 44.46 24.5469 43.38C23.5156 42.3 23 40.965 23 39.375C23 37.785 23.54 36.4725 24.62 35.4375C25.7 34.4025 27.035 33.8869 28.625 33.8906H33.9687C35.5625 33.8906 36.875 34.4063 37.9062 35.4375C38.9375 36.4688 39.4531 37.7812 39.4531 39.375C39.4531 40.9688 38.9375 42.3056 37.9062 43.3856C36.875 44.4656 35.5625 45.0037 33.9687 45H28.4844Z" fill="white"/>
</svg>
