<svg width="136" height="135" viewBox="0 0 136 135" fill="none" xmlns="http://www.w3.org/2000/svg">
<path d="M68.0001 9C65.5161 9 63.5001 11.016 63.5001 13.5V14.2734C63.5001 16.4244 61.9855 18.3435 59.8615 18.6855C58.831 18.852 57.8109 19.0449 56.8029 19.2744C54.7149 19.7514 52.6033 18.5693 51.7843 16.5938L51.4855 15.8906C50.536 13.5956 47.9051 12.5021 45.6056 13.4561C43.3106 14.4056 42.217 17.0364 43.171 19.3359L43.4698 20.0566C44.2978 22.0366 43.6357 24.3806 41.8087 25.5146C40.9267 26.0636 40.0662 26.6388 39.2247 27.2373C37.4787 28.4838 35.0635 28.2001 33.547 26.6836L33.0021 26.1387C31.2426 24.3792 28.3938 24.3792 26.6388 26.1387C24.8838 27.8982 24.8838 30.747 26.6388 32.502L27.1837 33.0469C28.7002 34.5634 28.9839 36.9741 27.7374 38.7246C27.1389 39.5661 26.5638 40.4266 26.0148 41.3086C24.8808 43.1356 22.5325 43.802 20.548 42.9785L19.8361 42.6797C17.5411 41.7302 14.9014 42.8193 13.9474 45.1143C12.9979 47.4093 14.087 50.0401 16.382 50.9941L17.0851 51.2842C19.0606 52.1032 20.2515 54.2147 19.7745 56.3027C19.545 57.3107 19.3434 58.3308 19.1769 59.3613C18.8394 61.4808 16.9246 63 14.7736 63H14.0001C11.5161 63 9.50012 65.016 9.50012 67.5C9.50012 69.984 11.5161 72 14.0001 72H14.7736C16.9246 72 18.8437 73.5147 19.1857 75.6387C19.3522 76.6692 19.545 77.6893 19.7745 78.6973C20.2515 80.7853 19.0694 82.8968 17.0939 83.7158L16.3907 84.0146C14.0957 84.9641 13.0022 87.595 13.9562 89.8945C14.9057 92.1895 17.5366 93.2831 19.8361 92.3291L20.5568 92.0303C22.5413 91.2068 24.8851 91.8689 26.0236 93.6914C26.5726 94.5734 27.1432 95.4382 27.7462 96.2842C28.9927 98.0302 28.709 100.445 27.1925 101.962L26.6388 102.507C24.8793 104.266 24.8793 107.115 26.6388 108.87C28.3983 110.625 31.2471 110.63 33.0021 108.87L33.5558 108.325C35.0723 106.809 37.4787 106.516 39.2247 107.763C40.0707 108.366 40.9355 108.945 41.8175 109.494C43.64 110.628 44.3109 112.976 43.4874 114.961L43.1886 115.673C42.2391 117.968 43.3282 120.608 45.6232 121.562C47.9182 122.511 50.5491 121.422 51.5031 119.127L51.7931 118.424C52.6121 116.448 54.7236 115.257 56.8116 115.734C57.8196 115.964 58.8397 116.166 59.8702 116.332C61.9807 116.661 63.5001 118.576 63.5001 120.727V121.5C63.5001 123.984 65.5161 126 68.0001 126C70.4841 126 72.5001 123.984 72.5001 121.5V120.727C72.5001 118.576 74.0148 116.656 76.1388 116.314C77.1693 116.148 78.1894 115.955 79.1974 115.726C81.2854 115.249 83.3969 116.431 84.2159 118.406L84.5148 119.109C85.4643 121.404 88.0952 122.498 90.3947 121.544C92.6897 120.594 93.7832 117.964 92.8292 115.664L92.5304 114.943C91.7069 112.959 92.369 110.615 94.1915 109.477C95.0735 108.928 95.9383 108.357 96.7843 107.754C98.5303 106.507 100.946 106.791 102.462 108.308L103.007 108.861C104.766 110.621 107.615 110.621 109.37 108.861C111.125 107.102 111.13 104.253 109.37 102.498L108.825 101.944C107.309 100.428 107.016 98.0214 108.263 96.2754C108.866 95.4294 109.445 94.5646 109.994 93.6826C111.128 91.8601 113.477 91.1892 115.461 92.0127L116.173 92.3115C118.468 93.261 121.108 92.172 122.062 89.877C123.011 87.582 121.922 84.9511 119.627 83.9971L118.924 83.707C116.948 82.888 115.757 80.7765 116.234 78.6885C116.464 77.6805 116.666 76.6604 116.832 75.6299C117.161 73.5194 119.076 72 121.227 72H122C124.484 72 126.5 69.984 126.5 67.5C126.5 65.016 124.484 63 122 63H121.227C119.076 63 117.157 61.4853 116.815 59.3613C116.648 58.3308 116.455 57.3107 116.226 56.3027C115.749 54.2147 116.931 52.1032 118.906 51.2842L119.609 50.9854C121.904 50.0359 122.998 47.405 122.044 45.1055C121.095 42.8105 118.464 41.7169 116.164 42.6709L115.443 42.9697C113.459 43.7932 111.115 43.1311 109.977 41.3086C109.428 40.4266 108.857 39.5618 108.254 38.7158C107.008 36.9698 107.291 34.5546 108.808 33.0381L109.361 32.4932C111.121 30.7337 111.121 27.8849 109.361 26.1299C107.602 24.3704 104.753 24.3704 102.998 26.1299L102.453 26.6836C100.937 28.2001 98.5215 28.4926 96.7755 27.2461C95.9295 26.6431 95.0647 26.0636 94.1827 25.5146C92.3602 24.3806 91.6981 22.0324 92.5216 20.0479L92.8204 19.3359C93.7699 17.0409 92.6809 14.4013 90.3859 13.4473C88.0909 12.4978 85.46 13.5868 84.506 15.8818L84.2072 16.585C83.3882 18.5605 81.2766 19.7514 79.1886 19.2744C78.1806 19.0449 77.1605 18.8433 76.13 18.6768C74.015 18.3393 72.5001 16.4244 72.5001 14.2734V13.5C72.5001 11.016 70.4841 9 68.0001 9ZM68.0001 31.5C86.354 31.5 101.474 45.2469 103.693 63H75.7784C74.9899 61.6342 73.8562 60.4995 72.4911 59.7097C71.126 58.92 69.5773 58.5028 68.0001 58.5C67.9972 58.5 67.9943 58.5 67.9913 58.5L54.0343 34.3125C58.3296 32.5023 63.0466 31.5 68.0001 31.5ZM46.2648 38.8477L60.213 63C59.4206 64.3675 59.0023 65.9195 59.0001 67.5C59.0054 69.0745 59.4236 70.6201 60.213 71.9824L46.256 96.1436C37.609 89.568 32.0001 79.2003 32.0001 67.5C32.0001 55.7953 37.6122 45.4228 46.2648 38.8477ZM75.7872 72H103.693C101.474 89.7531 86.354 103.5 68.0001 103.5C63.0466 103.5 58.3296 102.498 54.0343 100.688L67.9913 76.5C67.9943 76.5 67.9972 76.5 68.0001 76.5C69.5787 76.4987 71.1293 76.0823 72.4961 75.2924C73.8629 74.5026 74.9979 73.3671 75.7872 72Z" fill="white"/>
</svg>
